<svg xmlns="http://www.w3.org/2000/svg" width="980" height="462">
<style>text{font:12px sans-serif}.title{font:bold 15px sans-serif}.line{stroke:#2878b5;fill:none}.dot{fill:#174a7e}</style>
<text class="title" x="10" y="22">SYNTHETIC FIXTURE — within-model rank trends across documented model periods</text>
<text x="255.0" y="42">gpt2_2017</text>
<text x="905.0" y="42">llama3_8b_instruct_2023</text>
<text x="10" y="60">ai_literacy</text>
<polyline class="line" points="300.0,47.0 950.0,54.4"/>
<circle class="dot" cx="300.0" cy="47.0" r="3"/>
<text x="306.0" y="51.0">1</text>
<circle class="dot" cx="950.0" cy="54.4" r="3"/>
<text x="956.0" y="58.4">7</text>
<text x="10" y="88">attention_to_detail</text>
<polyline class="line" points="300.0,91.0 950.0,87.3"/>
<circle class="dot" cx="300.0" cy="91.0" r="3"/>
<text x="306.0" y="95.0">14</text>
<circle class="dot" cx="950.0" cy="87.3" r="3"/>
<text x="956.0" y="91.3">11</text>
<text x="10" y="116">complaint_handling</text>
<polyline class="line" points="300.0,114.1 950.0,109.2"/>
<circle class="dot" cx="300.0" cy="114.1" r="3"/>
<text x="306.0" y="118.1">10</text>
<circle class="dot" cx="950.0" cy="109.2" r="3"/>
<text x="956.0" y="113.2">6</text>
<text x="10" y="144">customer_service</text>
<polyline class="line" points="300.0,137.2 950.0,132.2"/>
<circle class="dot" cx="300.0" cy="137.2" r="3"/>
<text x="306.0" y="141.2">6</text>
<circle class="dot" cx="950.0" cy="132.2" r="3"/>
<text x="956.0" y="136.2">2</text>
<text x="10" y="172">data_privacy</text>
<polyline class="line" points="300.0,166.4 950.0,163.9"/>
<circle class="dot" cx="300.0" cy="166.4" r="3"/>
<text x="306.0" y="170.4">7</text>
<circle class="dot" cx="950.0" cy="163.9" r="3"/>
<text x="956.0" y="167.9">5</text>
<text x="10" y="200">guest_communication</text>
<polyline class="line" points="300.0,200.5 950.0,187.0"/>
<circle class="dot" cx="300.0" cy="200.5" r="3"/>
<text x="306.0" y="204.5">12</text>
<circle class="dot" cx="950.0" cy="187.0" r="3"/>
<text x="956.0" y="191.0">1</text>
<text x="10" y="228">local_knowledge</text>
<polyline class="line" points="300.0,223.6 950.0,217.5"/>
<circle class="dot" cx="300.0" cy="223.6" r="3"/>
<text x="306.0" y="227.6">8</text>
<circle class="dot" cx="950.0" cy="217.5" r="3"/>
<text x="956.0" y="221.5">3</text>
<text x="10" y="256">multitasking</text>
<polyline class="line" points="300.0,245.5 950.0,256.5"/>
<circle class="dot" cx="300.0" cy="245.5" r="3"/>
<text x="306.0" y="249.5">3</text>
<circle class="dot" cx="950.0" cy="256.5" r="3"/>
<text x="956.0" y="260.5">12</text>
<text x="10" y="284">payment_processing</text>
<polyline class="line" points="300.0,283.3 950.0,285.8"/>
<circle class="dot" cx="300.0" cy="283.3" r="3"/>
<text x="306.0" y="287.3">11</text>
<circle class="dot" cx="950.0" cy="285.8" r="3"/>
<text x="956.0" y="289.8">13</text>
<text x="10" y="312">problem_solving</text>
<polyline class="line" points="300.0,313.8 950.0,302.7"/>
<circle class="dot" cx="300.0" cy="313.8" r="3"/>
<text x="306.0" y="317.8">13</text>
<circle class="dot" cx="950.0" cy="302.7" r="3"/>
<text x="956.0" y="306.7">4</text>
<text x="10" y="340">record_keeping</text>
<polyline class="line" points="300.0,330.7 950.0,336.8"/>
<circle class="dot" cx="300.0" cy="330.7" r="3"/>
<text x="306.0" y="334.7">4</text>
<circle class="dot" cx="950.0" cy="336.8" r="3"/>
<text x="956.0" y="340.8">9</text>
<text x="10" y="368">reservation_systems</text>
<polyline class="line" points="300.0,356.2 950.0,366.1"/>
<circle class="dot" cx="300.0" cy="356.2" r="3"/>
<text x="306.0" y="360.2">2</text>
<circle class="dot" cx="950.0" cy="366.1" r="3"/>
<text x="956.0" y="370.1">10</text>
<text x="10" y="396">teamwork</text>
<polyline class="line" points="300.0,387.9 950.0,399.0"/>
<circle class="dot" cx="300.0" cy="387.9" r="3"/>
<text x="306.0" y="391.9">5</text>
<circle class="dot" cx="950.0" cy="399.0" r="3"/>
<text x="956.0" y="403.0">14</text>
<text x="10" y="424">time_management</text>
<polyline class="line" points="300.0,420.8 950.0,419.6"/>
<circle class="dot" cx="300.0" cy="420.8" r="3"/>
<text x="306.0" y="424.8">9</text>
<circle class="dot" cx="950.0" cy="419.6" r="3"/>
<text x="956.0" y="423.6">8</text>
<text x="10" y="452">Ranks are model-relative; movement is not labour-market change.</text>
</svg>
