<svg xmlns="http://www.w3.org/2000/svg" width="900" height="699">
<style>text{font:12px sans-serif}.title{font:bold 15px sans-serif}.bar{fill:#2878b5}</style>
<text class="title" x="10" y="21">SYNTHETIC FIXTURE — Prompt sensitivity (3 fixed variants; descriptive only)</text>
<text x="10" y="53">gpt2_2017 · ai_literacy</text>
<rect class="bar" x="310" y="42" width="269.6" height="14"/>
<text x="584.6" y="53">0.327446</text>
<text x="10" y="76">gpt2_2017 · attention_to_detail</text>
<rect class="bar" x="310" y="65" width="255.4" height="14"/>
<text x="570.4" y="76">0.310217</text>
<text x="10" y="99">gpt2_2017 · complaint_handling</text>
<rect class="bar" x="310" y="88" width="143.5" height="14"/>
<text x="458.5" y="99">0.174276</text>
<text x="10" y="122">gpt2_2017 · customer_service</text>
<rect class="bar" x="310" y="111" width="543.2" height="14"/>
<text x="858.2" y="122">0.659659</text>
<text x="10" y="145">gpt2_2017 · data_privacy</text>
<rect class="bar" x="310" y="134" width="552.0" height="14"/>
<text x="867.0" y="145">0.670351</text>
<text x="10" y="168">gpt2_2017 · guest_communication</text>
<rect class="bar" x="310" y="157" width="200.5" height="14"/>
<text x="515.5" y="168">0.243487</text>
<text x="10" y="191">gpt2_2017 · local_knowledge</text>
<rect class="bar" x="310" y="180" width="367.4" height="14"/>
<text x="682.4" y="191">0.446258</text>
<text x="10" y="214">gpt2_2017 · multitasking</text>
<rect class="bar" x="310" y="203" width="400.9" height="14"/>
<text x="715.9" y="214">0.48684</text>
<text x="10" y="237">gpt2_2017 · payment_processing</text>
<rect class="bar" x="310" y="226" width="77.0" height="14"/>
<text x="392.0" y="237">0.0935437</text>
<text x="10" y="260">gpt2_2017 · problem_solving</text>
<rect class="bar" x="310" y="249" width="419.8" height="14"/>
<text x="734.8" y="260">0.509886</text>
<text x="10" y="283">gpt2_2017 · record_keeping</text>
<rect class="bar" x="310" y="272" width="276.1" height="14"/>
<text x="591.1" y="283">0.335295</text>
<text x="10" y="306">gpt2_2017 · reservation_systems</text>
<rect class="bar" x="310" y="295" width="417.9" height="14"/>
<text x="732.9" y="306">0.507546</text>
<text x="10" y="329">gpt2_2017 · teamwork</text>
<rect class="bar" x="310" y="318" width="418.3" height="14"/>
<text x="733.3" y="329">0.508033</text>
<text x="10" y="352">gpt2_2017 · time_management</text>
<rect class="bar" x="310" y="341" width="351.3" height="14"/>
<text x="666.3" y="352">0.426669</text>
<text x="10" y="375">llama3_8b_instruct_2023 · ai_literacy</text>
<rect class="bar" x="310" y="364" width="392.9" height="14"/>
<text x="707.9" y="375">0.47716</text>
<text x="10" y="398">llama3_8b_instruct_2023 · attention_to_detail</text>
<rect class="bar" x="310" y="387" width="333.3" height="14"/>
<text x="648.3" y="398">0.404844</text>
<text x="10" y="421">llama3_8b_instruct_2023 · complaint_handling</text>
<rect class="bar" x="310" y="410" width="307.9" height="14"/>
<text x="622.9" y="421">0.373878</text>
<text x="10" y="444">llama3_8b_instruct_2023 · customer_service</text>
<rect class="bar" x="310" y="433" width="66.6" height="14"/>
<text x="381.6" y="444">0.080904</text>
<text x="10" y="467">llama3_8b_instruct_2023 · data_privacy</text>
<rect class="bar" x="310" y="456" width="453.7" height="14"/>
<text x="768.7" y="467">0.551062</text>
<text x="10" y="490">llama3_8b_instruct_2023 · guest_communication</text>
<rect class="bar" x="310" y="479" width="19.7" height="14"/>
<text x="334.7" y="490">0.0238979</text>
<text x="10" y="513">llama3_8b_instruct_2023 · local_knowledge</text>
<rect class="bar" x="310" y="502" width="487.5" height="14"/>
<text x="802.5" y="513">0.592085</text>
<text x="10" y="536">llama3_8b_instruct_2023 · multitasking</text>
<rect class="bar" x="310" y="525" width="487.7" height="14"/>
<text x="802.7" y="536">0.592301</text>
<text x="10" y="559">llama3_8b_instruct_2023 · payment_processing</text>
<rect class="bar" x="310" y="548" width="560.0" height="14"/>
<text x="875.0" y="559">0.680107</text>
<text x="10" y="582">llama3_8b_instruct_2023 · problem_solving</text>
<rect class="bar" x="310" y="571" width="344.8" height="14"/>
<text x="659.8" y="582">0.418811</text>
<text x="10" y="605">llama3_8b_instruct_2023 · record_keeping</text>
<rect class="bar" x="310" y="594" width="375.5" height="14"/>
<text x="690.5" y="605">0.456064</text>
<text x="10" y="628">llama3_8b_instruct_2023 · reservation_systems</text>
<rect class="bar" x="310" y="617" width="160.1" height="14"/>
<text x="475.1" y="628">0.194404</text>
<text x="10" y="651">llama3_8b_instruct_2023 · teamwork</text>
<rect class="bar" x="310" y="640" width="329.2" height="14"/>
<text x="644.2" y="651">0.399828</text>
<text x="10" y="674">llama3_8b_instruct_2023 · time_management</text>
<rect class="bar" x="310" y="663" width="439.6" height="14"/>
<text x="754.6" y="674">0.533857</text>
</svg>
