<svg xmlns="http://www.w3.org/2000/svg" width="900" height="607">
<style>text{font:12px sans-serif}.title{font:bold 15px sans-serif}.bar{fill:#2878b5}</style>
<text class="title" x="10" y="21">Fixture phrase prevalence by proposed category and model label</text>
<text x="10" y="53">AI literacy · qwen3_5_0_8b_2026</text>
<rect class="bar" x="310" y="42" width="373.3" height="14"/>
<text x="688.3" y="53">6</text>
<text x="10" y="76">Attention to detail · qwen1_5_0_5b_chat_2024</text>
<rect class="bar" x="310" y="65" width="435.6" height="14"/>
<text x="750.6" y="76">7</text>
<text x="10" y="99">Attention to detail · qwen3_5_0_8b_2026</text>
<rect class="bar" x="310" y="88" width="435.6" height="14"/>
<text x="750.6" y="99">7</text>
<text x="10" y="122">Complaint handling · qwen1_5_0_5b_chat_2024</text>
<rect class="bar" x="310" y="111" width="373.3" height="14"/>
<text x="688.3" y="122">6</text>
<text x="10" y="145">Complaint handling · qwen3_5_0_8b_2026</text>
<rect class="bar" x="310" y="134" width="311.1" height="14"/>
<text x="626.1" y="145">5</text>
<text x="10" y="168">Customer service · qwen1_5_0_5b_chat_2024</text>
<rect class="bar" x="310" y="157" width="560.0" height="14"/>
<text x="875.0" y="168">9</text>
<text x="10" y="191">Customer service · qwen3_5_0_8b_2026</text>
<rect class="bar" x="310" y="180" width="373.3" height="14"/>
<text x="688.3" y="191">6</text>
<text x="10" y="214">Data privacy · qwen3_5_0_8b_2026</text>
<rect class="bar" x="310" y="203" width="560.0" height="14"/>
<text x="875.0" y="214">9</text>
<text x="10" y="237">Guest communication · qwen1_5_0_5b_chat_2024</text>
<rect class="bar" x="310" y="226" width="560.0" height="14"/>
<text x="875.0" y="237">9</text>
<text x="10" y="260">Guest communication · qwen3_5_0_8b_2026</text>
<rect class="bar" x="310" y="249" width="560.0" height="14"/>
<text x="875.0" y="260">9</text>
<text x="10" y="283">Local knowledge · qwen1_5_0_5b_chat_2024</text>
<rect class="bar" x="310" y="272" width="311.1" height="14"/>
<text x="626.1" y="283">5</text>
<text x="10" y="306">Multitasking · qwen1_5_0_5b_chat_2024</text>
<rect class="bar" x="310" y="295" width="373.3" height="14"/>
<text x="688.3" y="306">6</text>
<text x="10" y="329">Multitasking · qwen3_5_0_8b_2026</text>
<rect class="bar" x="310" y="318" width="373.3" height="14"/>
<text x="688.3" y="329">6</text>
<text x="10" y="352">Payment processing · qwen1_5_0_5b_chat_2024</text>
<rect class="bar" x="310" y="341" width="373.3" height="14"/>
<text x="688.3" y="352">6</text>
<text x="10" y="375">Payment processing · qwen3_5_0_8b_2026</text>
<rect class="bar" x="310" y="364" width="186.7" height="14"/>
<text x="501.7" y="375">3</text>
<text x="10" y="398">Problem solving · qwen1_5_0_5b_chat_2024</text>
<rect class="bar" x="310" y="387" width="186.7" height="14"/>
<text x="501.7" y="398">3</text>
<text x="10" y="421">Problem solving · qwen3_5_0_8b_2026</text>
<rect class="bar" x="310" y="410" width="248.9" height="14"/>
<text x="563.9" y="421">4</text>
<text x="10" y="444">Record keeping · qwen1_5_0_5b_chat_2024</text>
<rect class="bar" x="310" y="433" width="186.7" height="14"/>
<text x="501.7" y="444">3</text>
<text x="10" y="467">Reservation systems · qwen1_5_0_5b_chat_2024</text>
<rect class="bar" x="310" y="456" width="373.3" height="14"/>
<text x="688.3" y="467">6</text>
<text x="10" y="490">Reservation systems · qwen3_5_0_8b_2026</text>
<rect class="bar" x="310" y="479" width="560.0" height="14"/>
<text x="875.0" y="490">9</text>
<text x="10" y="513">Teamwork · qwen1_5_0_5b_chat_2024</text>
<rect class="bar" x="310" y="502" width="560.0" height="14"/>
<text x="875.0" y="513">9</text>
<text x="10" y="536">Teamwork · qwen3_5_0_8b_2026</text>
<rect class="bar" x="310" y="525" width="373.3" height="14"/>
<text x="688.3" y="536">6</text>
<text x="10" y="559">Time management · qwen1_5_0_5b_chat_2024</text>
<rect class="bar" x="310" y="548" width="186.7" height="14"/>
<text x="501.7" y="559">3</text>
<text x="10" y="582">Time management · qwen3_5_0_8b_2026</text>
<rect class="bar" x="310" y="571" width="124.4" height="14"/>
<text x="439.4" y="582">2</text>
</svg>
